<mxfile host="app.diagrams.net" agent="Mozilla/5.0 (X11; Ubuntu; Linux x86_64; rv:137.0) Gecko/20100101 Firefox/137.0" version="26.2.14">
  <diagram id="C5RBs43oDa-KdzZeNtuy" name="Page-1">
    <mxGraphModel dx="1360" dy="795" grid="1" gridSize="10" guides="1" tooltips="1" connect="1" arrows="1" fold="1" page="1" pageScale="1" pageWidth="827" pageHeight="1169" math="0" shadow="0">
      <root>
        <mxCell id="WIyWlLk6GJQsqaUBKTNV-0" />
        <mxCell id="WIyWlLk6GJQsqaUBKTNV-1" parent="WIyWlLk6GJQsqaUBKTNV-0" />
        <mxCell id="GOfJNdNeNU2Qqo1dJbFf-1" value="Inicio" style="ellipse;whiteSpace=wrap;html=1;" vertex="1" parent="WIyWlLk6GJQsqaUBKTNV-1">
          <mxGeometry x="340" y="50" width="120" height="80" as="geometry" />
        </mxCell>
        <mxCell id="GOfJNdNeNU2Qqo1dJbFf-8" value="Fin" style="ellipse;whiteSpace=wrap;html=1;" vertex="1" parent="WIyWlLk6GJQsqaUBKTNV-1">
          <mxGeometry x="730" y="760" width="120" height="80" as="geometry" />
        </mxCell>
        <mxCell id="GOfJNdNeNU2Qqo1dJbFf-31" style="edgeStyle=orthogonalEdgeStyle;rounded=0;orthogonalLoop=1;jettySize=auto;html=1;" edge="1" parent="WIyWlLk6GJQsqaUBKTNV-1" source="GOfJNdNeNU2Qqo1dJbFf-16" target="GOfJNdNeNU2Qqo1dJbFf-17">
          <mxGeometry relative="1" as="geometry" />
        </mxCell>
        <mxCell id="GOfJNdNeNU2Qqo1dJbFf-16" value="Numero" style="shape=parallelogram;perimeter=parallelogramPerimeter;whiteSpace=wrap;html=1;fixedSize=1;" vertex="1" parent="WIyWlLk6GJQsqaUBKTNV-1">
          <mxGeometry x="340" y="180" width="120" height="60" as="geometry" />
        </mxCell>
        <mxCell id="GOfJNdNeNU2Qqo1dJbFf-29" style="edgeStyle=orthogonalEdgeStyle;rounded=0;orthogonalLoop=1;jettySize=auto;html=1;" edge="1" parent="WIyWlLk6GJQsqaUBKTNV-1" source="GOfJNdNeNU2Qqo1dJbFf-17" target="GOfJNdNeNU2Qqo1dJbFf-24">
          <mxGeometry relative="1" as="geometry" />
        </mxCell>
        <mxCell id="GOfJNdNeNU2Qqo1dJbFf-30" style="edgeStyle=orthogonalEdgeStyle;rounded=0;orthogonalLoop=1;jettySize=auto;html=1;" edge="1" parent="WIyWlLk6GJQsqaUBKTNV-1" source="GOfJNdNeNU2Qqo1dJbFf-17" target="GOfJNdNeNU2Qqo1dJbFf-20">
          <mxGeometry relative="1" as="geometry" />
        </mxCell>
        <mxCell id="GOfJNdNeNU2Qqo1dJbFf-17" value="Numero &amp;gt; 0" style="rhombus;whiteSpace=wrap;html=1;" vertex="1" parent="WIyWlLk6GJQsqaUBKTNV-1">
          <mxGeometry x="360" y="310" width="100" height="100" as="geometry" />
        </mxCell>
        <mxCell id="GOfJNdNeNU2Qqo1dJbFf-18" value="&lt;div&gt;Si&lt;/div&gt;" style="text;html=1;align=center;verticalAlign=middle;whiteSpace=wrap;rounded=0;" vertex="1" parent="WIyWlLk6GJQsqaUBKTNV-1">
          <mxGeometry x="474" y="320" width="60" height="30" as="geometry" />
        </mxCell>
        <mxCell id="GOfJNdNeNU2Qqo1dJbFf-19" value="No" style="text;html=1;align=center;verticalAlign=middle;whiteSpace=wrap;rounded=0;" vertex="1" parent="WIyWlLk6GJQsqaUBKTNV-1">
          <mxGeometry x="320" y="400" width="60" height="30" as="geometry" />
        </mxCell>
        <mxCell id="GOfJNdNeNU2Qqo1dJbFf-32" style="edgeStyle=orthogonalEdgeStyle;rounded=0;orthogonalLoop=1;jettySize=auto;html=1;" edge="1" parent="WIyWlLk6GJQsqaUBKTNV-1" source="GOfJNdNeNU2Qqo1dJbFf-20" target="GOfJNdNeNU2Qqo1dJbFf-25">
          <mxGeometry relative="1" as="geometry" />
        </mxCell>
        <mxCell id="GOfJNdNeNU2Qqo1dJbFf-33" style="edgeStyle=orthogonalEdgeStyle;rounded=0;orthogonalLoop=1;jettySize=auto;html=1;" edge="1" parent="WIyWlLk6GJQsqaUBKTNV-1" source="GOfJNdNeNU2Qqo1dJbFf-20" target="GOfJNdNeNU2Qqo1dJbFf-26">
          <mxGeometry relative="1" as="geometry" />
        </mxCell>
        <mxCell id="GOfJNdNeNU2Qqo1dJbFf-20" value="Numero &amp;lt; 0" style="rhombus;whiteSpace=wrap;html=1;" vertex="1" parent="WIyWlLk6GJQsqaUBKTNV-1">
          <mxGeometry x="364" y="500" width="110" height="110" as="geometry" />
        </mxCell>
        <mxCell id="GOfJNdNeNU2Qqo1dJbFf-21" value="No" style="text;html=1;align=center;verticalAlign=middle;whiteSpace=wrap;rounded=0;" vertex="1" parent="WIyWlLk6GJQsqaUBKTNV-1">
          <mxGeometry x="350" y="600" width="60" height="30" as="geometry" />
        </mxCell>
        <mxCell id="GOfJNdNeNU2Qqo1dJbFf-22" value="&lt;div&gt;Si&lt;/div&gt;" style="text;html=1;align=center;verticalAlign=middle;whiteSpace=wrap;rounded=0;" vertex="1" parent="WIyWlLk6GJQsqaUBKTNV-1">
          <mxGeometry x="460" y="510" width="60" height="30" as="geometry" />
        </mxCell>
        <mxCell id="GOfJNdNeNU2Qqo1dJbFf-24" value="&quot;Ingresaste un numero positivo&quot;" style="shape=document;whiteSpace=wrap;html=1;boundedLbl=1;" vertex="1" parent="WIyWlLk6GJQsqaUBKTNV-1">
          <mxGeometry x="670" y="330" width="120" height="80" as="geometry" />
        </mxCell>
        <mxCell id="GOfJNdNeNU2Qqo1dJbFf-35" style="edgeStyle=orthogonalEdgeStyle;rounded=0;orthogonalLoop=1;jettySize=auto;html=1;entryX=0;entryY=0;entryDx=0;entryDy=0;" edge="1" parent="WIyWlLk6GJQsqaUBKTNV-1" source="GOfJNdNeNU2Qqo1dJbFf-25" target="GOfJNdNeNU2Qqo1dJbFf-8">
          <mxGeometry relative="1" as="geometry">
            <Array as="points">
              <mxPoint x="610" y="640" />
              <mxPoint x="748" y="640" />
            </Array>
          </mxGeometry>
        </mxCell>
        <mxCell id="GOfJNdNeNU2Qqo1dJbFf-25" value="&quot;Ingresaste un numero negativo&quot;" style="shape=document;whiteSpace=wrap;html=1;boundedLbl=1;" vertex="1" parent="WIyWlLk6GJQsqaUBKTNV-1">
          <mxGeometry x="550" y="520" width="120" height="80" as="geometry" />
        </mxCell>
        <mxCell id="GOfJNdNeNU2Qqo1dJbFf-34" style="edgeStyle=orthogonalEdgeStyle;rounded=0;orthogonalLoop=1;jettySize=auto;html=1;" edge="1" parent="WIyWlLk6GJQsqaUBKTNV-1" source="GOfJNdNeNU2Qqo1dJbFf-26" target="GOfJNdNeNU2Qqo1dJbFf-8">
          <mxGeometry relative="1" as="geometry" />
        </mxCell>
        <mxCell id="GOfJNdNeNU2Qqo1dJbFf-26" value="&quot;Ingresaste el numero 0&quot;" style="shape=document;whiteSpace=wrap;html=1;boundedLbl=1;" vertex="1" parent="WIyWlLk6GJQsqaUBKTNV-1">
          <mxGeometry x="364" y="710" width="120" height="80" as="geometry" />
        </mxCell>
        <mxCell id="GOfJNdNeNU2Qqo1dJbFf-27" style="edgeStyle=orthogonalEdgeStyle;rounded=0;orthogonalLoop=1;jettySize=auto;html=1;entryX=0.558;entryY=0.017;entryDx=0;entryDy=0;entryPerimeter=0;" edge="1" parent="WIyWlLk6GJQsqaUBKTNV-1" source="GOfJNdNeNU2Qqo1dJbFf-1" target="GOfJNdNeNU2Qqo1dJbFf-16">
          <mxGeometry relative="1" as="geometry" />
        </mxCell>
        <mxCell id="GOfJNdNeNU2Qqo1dJbFf-36" style="edgeStyle=orthogonalEdgeStyle;rounded=0;orthogonalLoop=1;jettySize=auto;html=1;entryX=0.75;entryY=0.088;entryDx=0;entryDy=0;entryPerimeter=0;" edge="1" parent="WIyWlLk6GJQsqaUBKTNV-1" source="GOfJNdNeNU2Qqo1dJbFf-24" target="GOfJNdNeNU2Qqo1dJbFf-8">
          <mxGeometry relative="1" as="geometry" />
        </mxCell>
      </root>
    </mxGraphModel>
  </diagram>
</mxfile>
